<?xml version="1.0" encoding="UTF-8" standalone="no"?><!-- Generator: Gravit.io --><svg xmlns="http://www.w3.org/2000/svg" xmlns:xlink="http://www.w3.org/1999/xlink" style="isolation:isolate" viewBox="0 0 1280 800" width="1280pt" height="800pt"><g><clipPath id="_clipPath_oKPgSl9kfKROWKfVkUMWTVcCz6COZH6Z"><path d=" M 824.078 595.223 C 831.502 598.116 839.969 597.93 847.464 594.324 L 944.517 547.625 C 954.715 542.717 961.2 532.394 961.2 521.071 L 961.2 204.414 C 961.2 193.091 954.715 182.77 944.517 177.862 L 847.464 131.161 C 837.629 126.428 826.118 127.588 817.487 133.863 C 816.254 134.759 815.079 135.76 813.978 136.863 L 628.18 306.369 L 547.25 244.937 C 539.717 239.219 529.179 239.687 522.182 246.052 L 496.225 269.663 C 487.667 277.449 487.657 290.913 496.204 298.711 L 566.389 362.742 L 496.204 426.773 C 487.657 434.571 487.667 448.036 496.225 455.821 L 522.182 479.432 C 529.179 485.798 539.717 486.265 547.25 480.548 L 628.18 419.115 L 813.978 588.622 C 816.917 591.562 820.367 593.778 824.078 595.223 Z  M 843.422 255.729 L 702.444 362.742 L 843.422 469.755 L 843.422 255.729 Z " fill-rule="evenodd" fill="rgb(255,255,255)"/></clipPath><g clip-path="url(#_clipPath_oKPgSl9kfKROWKfVkUMWTVcCz6COZH6Z)"><g><path d=" M 944.517 177.935 L 847.388 131.169 C 836.146 125.756 822.71 128.039 813.886 136.863 L 495.92 426.773 C 487.368 434.571 487.378 448.036 495.942 455.821 L 521.914 479.432 C 528.915 485.798 539.459 486.265 546.998 480.548 L 929.902 190.067 C 942.747 180.322 961.198 189.484 961.198 205.609 L 961.198 204.481 C 961.198 193.163 954.715 182.845 944.517 177.935 Z " fill="rgb(0,101,169)"/><g filter="url(#sIFbLee4rvNhg8A1iPoL3fNaWyuX14YM)"><path d=" M 944.517 547.549 L 847.388 594.315 C 836.146 599.727 822.71 597.444 813.886 588.622 L 495.92 298.711 C 487.368 290.913 487.378 277.448 495.942 269.663 L 521.914 246.052 C 528.915 239.687 539.459 239.218 546.998 244.937 L 929.902 535.416 C 942.747 545.161 961.198 536 961.198 519.875 L 961.198 521.003 C 961.198 532.321 954.715 542.638 944.517 547.549 Z " fill="rgb(0,122,204)"/></g><defs><filter id="sIFbLee4rvNhg8A1iPoL3fNaWyuX14YM" x="-200%" y="-200%" width="400%" height="400%" filterUnits="objectBoundingBox" color-interpolation-filters="sRGB"><feGaussianBlur xmlns="http://www.w3.org/2000/svg" in="SourceGraphic" stdDeviation="10.6667"/><feOffset xmlns="http://www.w3.org/2000/svg" dx="0" dy="0" result="pf_100_offsetBlur"/><feFlood xmlns="http://www.w3.org/2000/svg" flood-color="#000000" flood-opacity="0"/><feComposite xmlns="http://www.w3.org/2000/svg" in2="pf_100_offsetBlur" operator="in" result="pf_100_dropShadow"/><feBlend xmlns="http://www.w3.org/2000/svg" in="SourceGraphic" in2="pf_100_dropShadow" mode="normal"/></filter></defs><g filter="url(#7TufRlXSICbP6bcwz0v2WScH3wKUwgEX)"><path d=" M 847.394 594.323 C 836.148 599.731 822.712 597.446 813.887 588.622 C 824.759 599.493 843.35 591.793 843.35 576.417 L 843.35 149.066 C 843.35 133.69 824.759 125.99 813.887 136.862 C 822.712 128.038 836.148 125.752 847.394 131.16 L 944.506 177.862 C 954.711 182.769 961.2 193.091 961.2 204.414 L 961.2 521.071 C 961.2 532.394 954.711 542.715 944.506 547.623 L 847.394 594.323 Z " fill="rgb(31,156,240)"/></g><defs><filter id="7TufRlXSICbP6bcwz0v2WScH3wKUwgEX" x="-200%" y="-200%" width="400%" height="400%" filterUnits="objectBoundingBox" color-interpolation-filters="sRGB"><feGaussianBlur xmlns="http://www.w3.org/2000/svg" in="SourceGraphic" stdDeviation="10.6667"/><feOffset xmlns="http://www.w3.org/2000/svg" dx="0" dy="0" result="pf_100_offsetBlur"/><feFlood xmlns="http://www.w3.org/2000/svg" flood-color="#000000" flood-opacity="0"/><feComposite xmlns="http://www.w3.org/2000/svg" in2="pf_100_offsetBlur" operator="in" result="pf_100_dropShadow"/><feBlend xmlns="http://www.w3.org/2000/svg" in="SourceGraphic" in2="pf_100_dropShadow" mode="normal"/></filter></defs><g style="opacity:0.25;"><g opacity="0.25"><linearGradient id="_lgradient_0" x1="0.5000004841048552" y1="-3.916454121080659e-9" x2="0.500000484104855" y2="0.9999992102054935" gradientTransform="matrix(471.4,0,0,468.97,489.512,128.257)" gradientUnits="userSpaceOnUse"><stop offset="0%" stop-opacity="1" style="stop-color:rgb(255,255,255)"/><stop offset="100%" stop-opacity="0" style="stop-color:rgb(255,255,255)"/></linearGradient><path d=" M 823.791 595.223 C 831.215 598.114 839.682 597.93 847.175 594.324 L 944.228 547.623 C 954.427 542.715 960.913 532.394 960.913 521.071 L 960.913 204.414 C 960.913 193.091 954.427 182.769 944.23 177.862 L 847.175 131.16 C 837.341 126.428 825.831 127.587 817.198 133.862 C 815.966 134.759 814.792 135.76 813.689 136.863 L 627.892 306.369 L 546.963 244.937 C 539.429 239.218 528.891 239.687 521.894 246.052 L 495.938 269.663 C 487.379 277.448 487.369 290.913 495.916 298.711 L 566.101 362.742 L 495.916 426.773 C 487.369 434.571 487.379 448.036 495.938 455.821 L 521.894 479.432 C 528.891 485.798 539.429 486.265 546.963 480.548 L 627.892 419.115 L 813.689 588.622 C 816.628 591.562 820.08 593.778 823.791 595.223 Z  M 843.135 255.729 L 702.156 362.742 L 843.135 469.755 L 843.135 255.729 Z " fill-rule="evenodd" fill="url(#_lgradient_0)"/></g></g></g></g><g><path d=" M 809.4 362.793 C 809.4 330.293 768.7 299.493 706.3 280.393 C 720.7 216.793 714.3 166.193 686.1 149.993 C 679.6 146.193 672 144.393 663.7 144.393 L 663.7 166.693 C 668.3 166.693 672 167.593 675.1 169.293 C 688.7 177.093 694.6 206.793 690 244.993 C 688.9 254.393 687.1 264.293 684.9 274.393 C 665.3 269.593 643.9 265.893 621.4 263.493 C 607.9 244.993 593.9 228.193 579.8 213.493 C 612.4 183.193 643 166.593 663.8 166.593 L 663.8 144.293 C 663.8 144.293 663.8 144.293 663.8 144.293 C 636.3 144.293 600.3 163.893 563.9 197.893 C 527.5 164.093 491.5 144.693 464 144.693 L 464 166.993 C 484.7 166.993 515.4 183.493 548 213.593 C 534 228.293 520 244.993 506.7 263.493 C 484.1 265.893 462.7 269.593 443.1 274.493 C 440.8 264.493 439.1 254.793 437.9 245.493 C 433.2 207.293 439 177.593 452.5 169.693 C 455.5 167.893 459.4 167.093 464 167.093 L 464 144.793 C 464 144.793 464 144.793 464 144.793 C 455.6 144.793 448 146.593 441.4 150.393 C 413.3 166.593 407 217.093 421.5 280.493 C 359.3 299.693 318.8 330.393 318.8 362.793 C 318.8 395.293 359.5 426.093 421.9 445.193 C 407.5 508.793 413.9 559.393 442.1 575.593 C 448.6 579.393 456.2 581.193 464.6 581.193 C 492.1 581.193 528.1 561.593 564.5 527.593 C 600.9 561.393 636.9 580.793 664.4 580.793 C 672.8 580.793 680.4 578.993 687 575.193 C 715.1 558.993 721.4 508.493 706.9 445.093 C 768.9 425.993 809.4 395.193 809.4 362.793 Z  M 679.2 296.093 C 675.5 308.993 670.9 322.293 665.7 335.593 C 661.6 327.593 657.3 319.593 652.6 311.593 C 648 303.593 643.1 295.793 638.2 288.193 C 652.4 290.293 666.1 292.893 679.2 296.093 Z  M 633.4 402.593 C 625.6 416.093 617.6 428.893 609.3 440.793 C 594.4 442.093 579.3 442.793 564.1 442.793 C 549 442.793 533.9 442.093 519.1 440.893 C 510.8 428.993 502.7 416.293 494.9 402.893 C 487.3 389.793 480.4 376.493 474.1 363.093 C 480.3 349.693 487.3 336.293 494.8 323.193 C 502.6 309.693 510.6 296.893 518.9 284.993 C 533.8 283.693 548.9 282.993 564.1 282.993 C 579.2 282.993 594.3 283.693 609.1 284.893 C 617.4 296.793 625.5 309.493 633.3 322.893 C 640.9 335.993 647.8 349.293 654.1 362.693 C 647.8 376.093 640.9 389.493 633.4 402.593 Z  M 665.7 389.593 C 671.1 402.993 675.7 416.393 679.5 429.393 C 666.4 432.593 652.6 435.293 638.3 437.393 C 643.2 429.693 648.1 421.793 652.7 413.693 C 657.3 405.693 661.6 397.593 665.7 389.593 Z  M 564.3 496.293 C 555 486.693 545.7 475.993 536.5 464.293 C 545.5 464.693 554.7 464.993 564 464.993 C 573.4 464.993 582.7 464.793 591.8 464.293 C 582.8 475.993 573.5 486.693 564.3 496.293 Z  M 489.9 437.393 C 475.7 435.293 462 432.693 448.9 429.493 C 452.6 416.593 457.2 403.293 462.4 389.993 C 466.5 397.993 470.8 405.993 475.5 413.993 C 480.2 421.993 485 429.793 489.9 437.393 Z  M 563.8 229.293 C 573.1 238.893 582.4 249.593 591.6 261.293 C 582.6 260.893 573.4 260.593 564.1 260.593 C 554.7 260.593 545.4 260.793 536.3 261.293 C 545.3 249.593 554.6 238.893 563.8 229.293 Z  M 489.8 288.193 C 484.9 295.893 480 303.793 475.4 311.893 C 470.8 319.893 466.5 327.893 462.4 335.893 C 457 322.493 452.4 309.093 448.6 296.093 C 461.7 292.993 475.5 290.293 489.8 288.193 Z  M 399.3 413.393 C 363.9 398.293 341 378.493 341 362.793 C 341 347.093 363.9 327.193 399.3 312.193 C 407.9 308.493 417.3 305.193 427 302.093 C 432.7 321.693 440.2 342.093 449.5 362.993 C 440.3 383.793 432.9 404.093 427.3 423.593 C 417.4 420.493 408 417.093 399.3 413.393 Z  M 453.1 556.293 C 439.5 548.493 433.6 518.793 438.2 480.593 C 439.3 471.193 441.1 461.293 443.3 451.193 C 462.9 455.993 484.3 459.693 506.8 462.093 C 520.3 480.593 534.3 497.393 548.4 512.093 C 515.8 542.393 485.2 558.993 464.4 558.993 C 459.9 558.893 456.1 557.993 453.1 556.293 Z  M 690.3 480.093 C 695 518.293 689.2 547.993 675.7 555.893 C 672.7 557.693 668.8 558.493 664.2 558.493 C 643.5 558.493 612.8 541.993 580.2 511.893 C 594.2 497.193 608.2 480.493 621.5 461.993 C 644.1 459.593 665.5 455.893 685.1 450.993 C 687.4 461.093 689.2 470.793 690.3 480.093 Z  M 728.8 413.393 C 720.2 417.093 710.8 420.393 701.1 423.493 C 695.4 403.893 687.9 383.493 678.6 362.593 C 687.8 341.793 695.2 321.493 700.8 301.993 C 710.7 305.093 720.1 308.493 728.9 312.193 C 764.3 327.293 787.2 347.093 787.2 362.793 C 787.1 378.493 764.2 398.393 728.8 413.393 Z " fill="rgb(97,218,251)"/><path d=" M 463.9 144.693 L 463.9 144.693 L 463.9 144.693 L 463.9 144.693 Z " fill="rgb(97,218,251)"/><circle vector-effect="non-scaling-stroke" cx="564.0000000000002" cy="362.79254400883474" r="45.700000000000045" fill="rgb(97,218,251)"/><path d=" M 663.6 144.393 L 663.6 144.393 L 663.6 144.393 L 663.6 144.393 Z " fill="rgb(97,218,251)"/></g><clipPath id="_clipPath_sEXFaBtdvmhp0NuLW6Mcge3FVVEFoSxH"><path d=" M 824.078 595.223 C 831.502 598.116 839.969 597.93 847.464 594.324 L 939.8 554.294 Q 949.998 549.387 547.25 244.937 C 539.717 239.219 529.179 239.687 522.182 246.052 L 496.225 269.663 C 487.667 277.449 487.657 290.913 496.204 298.711 L 655.091 443.667 L 813.978 588.622 C 816.917 591.562 820.367 593.778 824.078 595.223 Z  M 843.422 469.755" fill-rule="evenodd" fill="rgb(255,255,255)"/></clipPath><g clip-path="url(#_clipPath_sEXFaBtdvmhp0NuLW6Mcge3FVVEFoSxH)"><g><path d=" M 944.517 177.935 L 847.388 131.169 C 836.146 125.756 822.71 128.039 813.886 136.863 L 495.92 426.773 C 487.368 434.571 487.378 448.036 495.942 455.821 L 521.914 479.432 C 528.915 485.797 539.459 486.265 546.998 480.548 L 929.902 190.067 C 942.747 180.322 961.198 189.484 961.198 205.609 L 961.198 204.481 C 961.198 193.163 954.715 182.845 944.517 177.935 Z " fill="rgb(0,101,169)"/><g filter="url(#LZ4n1ddO6dMVBP2SAugvLEAkTULmMqpj)"><path d=" M 944.517 547.549 L 847.388 594.315 C 836.146 599.727 822.71 597.444 813.886 588.622 L 495.92 298.711 C 487.368 290.913 487.378 277.448 495.942 269.663 L 521.914 246.052 C 528.915 239.687 539.459 239.218 546.998 244.937 L 929.902 535.416 C 942.747 545.161 961.198 536 961.198 519.875 L 961.198 521.003 C 961.198 532.321 954.715 542.638 944.517 547.549 Z " fill="rgb(0,122,204)"/></g><defs><filter id="LZ4n1ddO6dMVBP2SAugvLEAkTULmMqpj" x="-200%" y="-200%" width="400%" height="400%" filterUnits="objectBoundingBox" color-interpolation-filters="sRGB"><feGaussianBlur xmlns="http://www.w3.org/2000/svg" in="SourceGraphic" stdDeviation="10.6667"/><feOffset xmlns="http://www.w3.org/2000/svg" dx="0" dy="0" result="pf_100_offsetBlur"/><feFlood xmlns="http://www.w3.org/2000/svg" flood-color="#000000" flood-opacity="0"/><feComposite xmlns="http://www.w3.org/2000/svg" in2="pf_100_offsetBlur" operator="in" result="pf_100_dropShadow"/><feBlend xmlns="http://www.w3.org/2000/svg" in="SourceGraphic" in2="pf_100_dropShadow" mode="normal"/></filter></defs><g filter="url(#Lt0vEUgoBVyZOJva2wlHzEj0K6PdbkAf)"><path d=" M 847.394 594.323 C 836.148 599.731 822.712 597.446 813.887 588.622 C 824.759 599.493 843.35 591.793 843.35 576.417 L 843.35 149.066 C 843.35 133.69 824.759 125.99 813.887 136.862 C 822.712 128.038 836.148 125.752 847.394 131.16 L 944.506 177.862 C 954.711 182.769 961.2 193.091 961.2 204.414 L 961.2 521.071 C 961.2 532.394 954.711 542.715 944.506 547.623 L 847.394 594.323 Z " fill="rgb(31,156,240)"/></g><defs><filter id="Lt0vEUgoBVyZOJva2wlHzEj0K6PdbkAf" x="-200%" y="-200%" width="400%" height="400%" filterUnits="objectBoundingBox" color-interpolation-filters="sRGB"><feGaussianBlur xmlns="http://www.w3.org/2000/svg" in="SourceGraphic" stdDeviation="10.6667"/><feOffset xmlns="http://www.w3.org/2000/svg" dx="0" dy="0" result="pf_100_offsetBlur"/><feFlood xmlns="http://www.w3.org/2000/svg" flood-color="#000000" flood-opacity="0"/><feComposite xmlns="http://www.w3.org/2000/svg" in2="pf_100_offsetBlur" operator="in" result="pf_100_dropShadow"/><feBlend xmlns="http://www.w3.org/2000/svg" in="SourceGraphic" in2="pf_100_dropShadow" mode="normal"/></filter></defs><g style="opacity:0.25;"><g opacity="0.25"><linearGradient id="_lgradient_1" x1="0.5000004841048552" y1="-3.916454121080659e-9" x2="0.500000484104855" y2="0.9999992102054935" gradientTransform="matrix(471.4,0,0,468.97,489.512,128.257)" gradientUnits="userSpaceOnUse"><stop offset="0%" stop-opacity="1" style="stop-color:rgb(255,255,255)"/><stop offset="100%" stop-opacity="0" style="stop-color:rgb(255,255,255)"/></linearGradient><path d=" M 823.791 595.223 C 831.215 598.114 839.682 597.93 847.175 594.324 L 944.228 547.623 C 954.427 542.715 960.913 532.394 960.913 521.071 L 960.913 204.414 C 960.913 193.091 954.427 182.769 944.23 177.862 L 847.175 131.16 C 837.341 126.428 825.831 127.587 817.198 133.862 C 815.966 134.759 814.792 135.76 813.689 136.863 L 627.892 306.369 L 546.963 244.937 C 539.429 239.218 528.891 239.687 521.894 246.052 L 495.938 269.663 C 487.379 277.448 487.369 290.913 495.916 298.711 L 566.101 362.742 L 495.916 426.773 C 487.369 434.571 487.379 448.036 495.938 455.821 L 521.894 479.432 C 528.891 485.797 539.429 486.265 546.963 480.548 L 627.892 419.115 L 813.689 588.622 C 816.628 591.562 820.08 593.778 823.791 595.223 Z  M 843.135 255.729 L 702.156 362.742 L 843.135 469.755 L 843.135 255.729 Z " fill-rule="evenodd" fill="url(#_lgradient_1)"/></g></g></g></g></g><path d=" M 765.368 637.727 L 765.368 637.727 Q 765.976 637.727 766.328 638.079 L 766.328 638.079 L 766.328 638.079 Q 766.68 638.431 766.68 638.975 L 766.68 638.975 L 766.68 659.327 L 766.68 659.327 Q 766.68 659.903 766.328 660.255 L 766.328 660.255 L 766.328 660.255 Q 765.976 660.607 765.368 660.607 L 765.368 660.607 L 765.368 660.607 Q 764.76 660.607 764.424 660.255 L 764.424 660.255 L 764.424 660.255 Q 764.088 659.903 764.088 659.327 L 764.088 659.327 L 764.088 657.599 L 764.088 657.599 Q 763.384 659.071 762.024 659.871 L 762.024 659.871 L 762.024 659.871 Q 760.664 660.671 758.84 660.671 L 758.84 660.671 L 758.84 660.671 Q 756.792 660.671 755.224 659.647 L 755.224 659.647 L 755.224 659.647 Q 753.656 658.623 752.792 656.783 L 752.792 656.783 L 752.792 656.783 Q 751.928 654.943 751.928 652.511 L 751.928 652.511 L 751.928 652.511 Q 751.928 650.111 752.792 648.287 L 752.792 648.287 L 752.792 648.287 Q 753.656 646.463 755.224 645.471 L 755.224 645.471 L 755.224 645.471 Q 756.792 644.479 758.84 644.479 L 758.84 644.479 L 758.84 644.479 Q 760.664 644.479 762.024 645.279 L 762.024 645.279 L 762.024 645.279 Q 763.384 646.079 764.088 647.551 L 764.088 647.551 L 764.088 638.975 L 764.088 638.975 Q 764.088 638.399 764.424 638.063 L 764.424 638.063 L 764.424 638.063 Q 764.76 637.727 765.368 637.727 L 765.368 637.727 L 765.368 637.727 Z  M 759.352 658.527 L 759.352 658.527 Q 761.624 658.527 762.856 656.975 L 762.856 656.975 L 762.856 656.975 Q 764.088 655.423 764.088 652.575 L 764.088 652.575 L 764.088 652.575 Q 764.088 649.727 762.856 648.191 L 762.856 648.191 L 762.856 648.191 Q 761.624 646.655 759.352 646.655 L 759.352 646.655 L 759.352 646.655 Q 757.08 646.655 755.816 648.191 L 755.816 648.191 L 755.816 648.191 Q 754.552 649.727 754.552 652.511 L 754.552 652.511 L 754.552 652.511 Q 754.552 655.359 755.816 656.943 L 755.816 656.943 L 755.816 656.943 Q 757.08 658.527 759.352 658.527 L 759.352 658.527 L 759.352 658.527 Z  M 783.544 656.831 L 783.544 656.831 Q 783.896 656.831 784.152 657.119 L 784.152 657.119 L 784.152 657.119 Q 784.408 657.407 784.408 657.855 L 784.408 657.855 L 784.408 657.855 Q 784.408 658.655 783.288 659.327 L 783.288 659.327 L 783.288 659.327 Q 782.136 659.999 780.856 660.335 L 780.856 660.335 L 780.856 660.335 Q 779.576 660.671 778.36 660.671 L 778.36 660.671 L 778.36 660.671 Q 774.744 660.671 772.648 658.527 L 772.648 658.527 L 772.648 658.527 Q 770.552 656.383 770.552 652.607 L 770.552 652.607 L 770.552 652.607 Q 770.552 650.207 771.48 648.367 L 771.48 648.367 L 771.48 648.367 Q 772.408 646.527 774.088 645.503 L 774.088 645.503 L 774.088 645.503 Q 775.768 644.479 777.912 644.479 L 777.912 644.479 L 777.912 644.479 Q 780.952 644.479 782.744 646.463 L 782.744 646.463 L 782.744 646.463 Q 784.536 648.447 784.536 651.839 L 784.536 651.839 L 784.536 651.839 Q 784.536 652.479 784.28 652.767 L 784.28 652.767 L 784.28 652.767 Q 784.024 653.055 783.448 653.055 L 783.448 653.055 L 773.144 653.055 L 773.144 653.055 Q 773.432 658.559 778.36 658.559 L 778.36 658.559 L 778.36 658.559 Q 779.608 658.559 780.504 658.223 L 780.504 658.223 L 780.504 658.223 Q 781.4 657.887 782.424 657.311 L 782.424 657.311 L 782.424 657.311 Q 783.256 656.831 783.544 656.831 L 783.544 656.831 L 783.544 656.831 Z  M 777.944 646.495 L 777.944 646.495 Q 775.896 646.495 774.664 647.775 L 774.664 647.775 L 774.664 647.775 Q 773.432 649.055 773.208 651.391 L 773.208 651.391 L 782.264 651.391 L 782.264 651.391 Q 782.2 649.023 781.08 647.759 L 781.08 647.759 L 781.08 647.759 Q 779.96 646.495 777.944 646.495 L 777.944 646.495 L 777.944 646.495 Z  M 799.384 645.343 L 799.384 645.343 Q 799.736 644.575 800.504 644.575 L 800.504 644.575 L 800.504 644.575 Q 800.984 644.575 801.368 644.895 L 801.368 644.895 L 801.368 644.895 Q 801.752 645.215 801.752 645.695 L 801.752 645.695 L 801.752 645.695 Q 801.752 645.983 801.624 646.207 L 801.624 646.207 L 795.384 659.647 L 795.384 659.647 Q 795.192 660.063 794.808 660.303 L 794.808 660.303 L 794.808 660.303 Q 794.424 660.543 793.976 660.543 L 793.976 660.543 L 793.976 660.543 Q 793.56 660.543 793.176 660.303 L 793.176 660.303 L 793.176 660.303 Q 792.792 660.063 792.568 659.647 L 792.568 659.647 L 786.36 646.207 L 786.36 646.207 Q 786.232 645.983 786.232 645.727 L 786.232 645.727 L 786.232 645.727 Q 786.232 645.247 786.664 644.895 L 786.664 644.895 L 786.664 644.895 Q 787.096 644.543 787.608 644.543 L 787.608 644.543 L 787.608 644.543 Q 787.928 644.543 788.232 644.735 L 788.232 644.735 L 788.232 644.735 Q 788.536 644.927 788.696 645.279 L 788.696 645.279 L 794.04 657.279 L 799.384 645.343 L 799.384 645.343 Z  M 816.472 656.831 L 816.472 656.831 Q 816.824 656.831 817.08 657.119 L 817.08 657.119 L 817.08 657.119 Q 817.336 657.407 817.336 657.855 L 817.336 657.855 L 817.336 657.855 Q 817.336 658.655 816.216 659.327 L 816.216 659.327 L 816.216 659.327 Q 815.064 659.999 813.784 660.335 L 813.784 660.335 L 813.784 660.335 Q 812.504 660.671 811.288 660.671 L 811.288 660.671 L 811.288 660.671 Q 807.672 660.671 805.576 658.527 L 805.576 658.527 L 805.576 658.527 Q 803.48 656.383 803.48 652.607 L 803.48 652.607 L 803.48 652.607 Q 803.48 650.207 804.408 648.367 L 804.408 648.367 L 804.408 648.367 Q 805.336 646.527 807.016 645.503 L 807.016 645.503 L 807.016 645.503 Q 808.696 644.479 810.84 644.479 L 810.84 644.479 L 810.84 644.479 Q 813.88 644.479 815.672 646.463 L 815.672 646.463 L 815.672 646.463 Q 817.464 648.447 817.464 651.839 L 817.464 651.839 L 817.464 651.839 Q 817.464 652.479 817.208 652.767 L 817.208 652.767 L 817.208 652.767 Q 816.952 653.055 816.376 653.055 L 816.376 653.055 L 806.072 653.055 L 806.072 653.055 Q 806.36 658.559 811.288 658.559 L 811.288 658.559 L 811.288 658.559 Q 812.536 658.559 813.432 658.223 L 813.432 658.223 L 813.432 658.223 Q 814.328 657.887 815.352 657.311 L 815.352 657.311 L 815.352 657.311 Q 816.184 656.831 816.472 656.831 L 816.472 656.831 L 816.472 656.831 Z  M 810.872 646.495 L 810.872 646.495 Q 808.824 646.495 807.592 647.775 L 807.592 647.775 L 807.592 647.775 Q 806.36 649.055 806.136 651.391 L 806.136 651.391 L 815.192 651.391 L 815.192 651.391 Q 815.128 649.023 814.008 647.759 L 814.008 647.759 L 814.008 647.759 Q 812.888 646.495 810.872 646.495 L 810.872 646.495 L 810.872 646.495 Z  M 822.584 660.607 L 822.584 660.607 Q 822.008 660.607 821.64 660.271 L 821.64 660.271 L 821.64 660.271 Q 821.272 659.935 821.272 659.327 L 821.272 659.327 L 821.272 639.007 L 821.272 639.007 Q 821.272 638.399 821.64 638.063 L 821.64 638.063 L 821.64 638.063 Q 822.008 637.727 822.584 637.727 L 822.584 637.727 L 822.584 637.727 Q 823.128 637.727 823.496 638.063 L 823.496 638.063 L 823.496 638.063 Q 823.864 638.399 823.864 639.007 L 823.864 639.007 L 823.864 659.327 L 823.864 659.327 Q 823.864 659.935 823.496 660.271 L 823.496 660.271 L 823.496 660.271 Q 823.128 660.607 822.584 660.607 L 822.584 660.607 L 822.584 660.607 Z  M 835.16 660.671 L 835.16 660.671 Q 832.952 660.671 831.272 659.679 L 831.272 659.679 L 831.272 659.679 Q 829.592 658.687 828.68 656.847 L 828.68 656.847 L 828.68 656.847 Q 827.768 655.007 827.768 652.575 L 827.768 652.575 L 827.768 652.575 Q 827.768 650.143 828.68 648.303 L 828.68 648.303 L 828.68 648.303 Q 829.592 646.463 831.272 645.471 L 831.272 645.471 L 831.272 645.471 Q 832.952 644.479 835.16 644.479 L 835.16 644.479 L 835.16 644.479 Q 837.368 644.479 839.064 645.471 L 839.064 645.471 L 839.064 645.471 Q 840.76 646.463 841.672 648.303 L 841.672 648.303 L 841.672 648.303 Q 842.584 650.143 842.584 652.575 L 842.584 652.575 L 842.584 652.575 Q 842.584 655.007 841.672 656.847 L 841.672 656.847 L 841.672 656.847 Q 840.76 658.687 839.064 659.679 L 839.064 659.679 L 839.064 659.679 Q 837.368 660.671 835.16 660.671 L 835.16 660.671 L 835.16 660.671 Z  M 835.16 658.527 L 835.16 658.527 Q 837.464 658.527 838.696 657.007 L 838.696 657.007 L 838.696 657.007 Q 839.928 655.487 839.928 652.575 L 839.928 652.575 L 839.928 652.575 Q 839.928 649.727 838.68 648.175 L 838.68 648.175 L 838.68 648.175 Q 837.432 646.623 835.16 646.623 L 835.16 646.623 L 835.16 646.623 Q 832.888 646.623 831.64 648.175 L 831.64 648.175 L 831.64 648.175 Q 830.392 649.727 830.392 652.575 L 830.392 652.575 L 830.392 652.575 Q 830.392 655.455 831.624 656.991 L 831.624 656.991 L 831.624 656.991 Q 832.856 658.527 835.16 658.527 L 835.16 658.527 L 835.16 658.527 Z  M 854.296 644.479 L 854.296 644.479 Q 856.344 644.479 857.912 645.503 L 857.912 645.503 L 857.912 645.503 Q 859.48 646.527 860.344 648.367 L 860.344 648.367 L 860.344 648.367 Q 861.208 650.207 861.208 652.639 L 861.208 652.639 L 861.208 652.639 Q 861.208 655.071 860.344 656.879 L 860.344 656.879 L 860.344 656.879 Q 859.48 658.687 857.928 659.679 L 857.928 659.679 L 857.928 659.679 Q 856.376 660.671 854.296 660.671 L 854.296 660.671 L 854.296 660.671 Q 852.472 660.671 851.112 659.871 L 851.112 659.871 L 851.112 659.871 Q 849.752 659.071 849.048 657.599 L 849.048 657.599 L 849.048 665.119 L 849.048 665.119 Q 849.048 665.695 848.712 666.031 L 848.712 666.031 L 848.712 666.031 Q 848.376 666.367 847.768 666.367 L 847.768 666.367 L 847.768 666.367 Q 847.16 666.367 846.808 666.015 L 846.808 666.015 L 846.808 666.015 Q 846.456 665.663 846.456 665.119 L 846.456 665.119 L 846.456 645.823 L 846.456 645.823 Q 846.456 645.247 846.808 644.895 L 846.808 644.895 L 846.808 644.895 Q 847.16 644.543 847.768 644.543 L 847.768 644.543 L 847.768 644.543 Q 848.376 644.543 848.712 644.895 L 848.712 644.895 L 848.712 644.895 Q 849.048 645.247 849.048 645.823 L 849.048 645.823 L 849.048 647.551 L 849.048 647.551 Q 849.752 646.079 851.112 645.279 L 851.112 645.279 L 851.112 645.279 Q 852.472 644.479 854.296 644.479 L 854.296 644.479 L 854.296 644.479 Z  M 853.784 658.527 L 853.784 658.527 Q 856.056 658.527 857.304 656.991 L 857.304 656.991 L 857.304 656.991 Q 858.552 655.455 858.552 652.639 L 858.552 652.639 L 858.552 652.639 Q 858.552 649.823 857.304 648.239 L 857.304 648.239 L 857.304 648.239 Q 856.056 646.655 853.784 646.655 L 853.784 646.655 L 853.784 646.655 Q 851.512 646.655 850.28 648.191 L 850.28 648.191 L 850.28 648.191 Q 849.048 649.727 849.048 652.575 L 849.048 652.575 L 849.048 652.575 Q 849.048 655.423 850.28 656.975 L 850.28 656.975 L 850.28 656.975 Q 851.512 658.527 853.784 658.527 L 853.784 658.527 L 853.784 658.527 Z  M 882.424 644.479 L 882.424 644.479 Q 887.608 644.479 887.608 650.655 L 887.608 650.655 L 887.608 659.327 L 887.608 659.327 Q 887.608 659.935 887.256 660.271 L 887.256 660.271 L 887.256 660.271 Q 886.904 660.607 886.328 660.607 L 886.328 660.607 L 886.328 660.607 Q 885.752 660.607 885.384 660.271 L 885.384 660.271 L 885.384 660.271 Q 885.016 659.935 885.016 659.327 L 885.016 659.327 L 885.016 650.719 L 885.016 650.719 Q 885.016 648.575 884.248 647.615 L 884.248 647.615 L 884.248 647.615 Q 883.48 646.655 881.848 646.655 L 881.848 646.655 L 881.848 646.655 Q 879.896 646.655 878.776 647.967 L 878.776 647.967 L 878.776 647.967 Q 877.656 649.279 877.656 651.519 L 877.656 651.519 L 877.656 659.327 L 877.656 659.327 Q 877.656 659.935 877.288 660.271 L 877.288 660.271 L 877.288 660.271 Q 876.92 660.607 876.344 660.607 L 876.344 660.607 L 876.344 660.607 Q 875.768 660.607 875.416 660.271 L 875.416 660.271 L 875.416 660.271 Q 875.064 659.935 875.064 659.327 L 875.064 659.327 L 875.064 650.719 L 875.064 650.719 Q 875.064 648.575 874.296 647.615 L 874.296 647.615 L 874.296 647.615 Q 873.528 646.655 871.864 646.655 L 871.864 646.655 L 871.864 646.655 Q 869.944 646.655 868.808 647.967 L 868.808 647.967 L 868.808 647.967 Q 867.672 649.279 867.672 651.519 L 867.672 651.519 L 867.672 659.327 L 867.672 659.327 Q 867.672 659.935 867.32 660.271 L 867.32 660.271 L 867.32 660.271 Q 866.968 660.607 866.392 660.607 L 866.392 660.607 L 866.392 660.607 Q 865.816 660.607 865.448 660.271 L 865.448 660.271 L 865.448 660.271 Q 865.08 659.935 865.08 659.327 L 865.08 659.327 L 865.08 645.823 L 865.08 645.823 Q 865.08 645.247 865.448 644.895 L 865.448 644.895 L 865.448 644.895 Q 865.816 644.543 866.392 644.543 L 866.392 644.543 L 866.392 644.543 Q 866.936 644.543 867.288 644.879 L 867.288 644.879 L 867.288 644.879 Q 867.64 645.215 867.64 645.791 L 867.64 645.791 L 867.64 647.327 L 867.64 647.327 Q 868.344 645.951 869.592 645.215 L 869.592 645.215 L 869.592 645.215 Q 870.84 644.479 872.472 644.479 L 872.472 644.479 L 872.472 644.479 Q 876.12 644.479 877.24 647.551 L 877.24 647.551 L 877.24 647.551 Q 877.912 646.143 879.288 645.311 L 879.288 645.311 L 879.288 645.311 Q 880.664 644.479 882.424 644.479 L 882.424 644.479 L 882.424 644.479 Z  M 904.408 656.831 L 904.408 656.831 Q 904.76 656.831 905.016 657.119 L 905.016 657.119 L 905.016 657.119 Q 905.272 657.407 905.272 657.855 L 905.272 657.855 L 905.272 657.855 Q 905.272 658.655 904.152 659.327 L 904.152 659.327 L 904.152 659.327 Q 903 659.999 901.72 660.335 L 901.72 660.335 L 901.72 660.335 Q 900.44 660.671 899.224 660.671 L 899.224 660.671 L 899.224 660.671 Q 895.608 660.671 893.512 658.527 L 893.512 658.527 L 893.512 658.527 Q 891.416 656.383 891.416 652.607 L 891.416 652.607 L 891.416 652.607 Q 891.416 650.207 892.344 648.367 L 892.344 648.367 L 892.344 648.367 Q 893.272 646.527 894.952 645.503 L 894.952 645.503 L 894.952 645.503 Q 896.632 644.479 898.776 644.479 L 898.776 644.479 L 898.776 644.479 Q 901.816 644.479 903.608 646.463 L 903.608 646.463 L 903.608 646.463 Q 905.4 648.447 905.4 651.839 L 905.4 651.839 L 905.4 651.839 Q 905.4 652.479 905.144 652.767 L 905.144 652.767 L 905.144 652.767 Q 904.888 653.055 904.312 653.055 L 904.312 653.055 L 894.008 653.055 L 894.008 653.055 Q 894.296 658.559 899.224 658.559 L 899.224 658.559 L 899.224 658.559 Q 900.472 658.559 901.368 658.223 L 901.368 658.223 L 901.368 658.223 Q 902.264 657.887 903.288 657.311 L 903.288 657.311 L 903.288 657.311 Q 904.12 656.831 904.408 656.831 L 904.408 656.831 L 904.408 656.831 Z  M 898.808 646.495 L 898.808 646.495 Q 896.76 646.495 895.528 647.775 L 895.528 647.775 L 895.528 647.775 Q 894.296 649.055 894.072 651.391 L 894.072 651.391 L 903.128 651.391 L 903.128 651.391 Q 903.064 649.023 901.944 647.759 L 901.944 647.759 L 901.944 647.759 Q 900.824 646.495 898.808 646.495 L 898.808 646.495 L 898.808 646.495 Z  M 917.048 644.479 L 917.048 644.479 Q 922.648 644.479 922.648 650.655 L 922.648 650.655 L 922.648 659.327 L 922.648 659.327 Q 922.648 659.935 922.312 660.271 L 922.312 660.271 L 922.312 660.271 Q 921.976 660.607 921.368 660.607 L 921.368 660.607 L 921.368 660.607 Q 920.76 660.607 920.408 660.271 L 920.408 660.271 L 920.408 660.271 Q 920.056 659.935 920.056 659.327 L 920.056 659.327 L 920.056 650.815 L 920.056 650.815 Q 920.056 648.639 919.208 647.647 L 919.208 647.647 L 919.208 647.647 Q 918.36 646.655 916.504 646.655 L 916.504 646.655 L 916.504 646.655 Q 914.36 646.655 913.08 647.967 L 913.08 647.967 L 913.08 647.967 Q 911.8 649.279 911.8 651.519 L 911.8 651.519 L 911.8 659.327 L 911.8 659.327 Q 911.8 659.935 911.464 660.271 L 911.464 660.271 L 911.464 660.271 Q 911.128 660.607 910.52 660.607 L 910.52 660.607 L 910.52 660.607 Q 909.912 660.607 909.56 660.271 L 909.56 660.271 L 909.56 660.271 Q 909.208 659.935 909.208 659.327 L 909.208 659.327 L 909.208 645.823 L 909.208 645.823 Q 909.208 645.247 909.56 644.895 L 909.56 644.895 L 909.56 644.895 Q 909.912 644.543 910.52 644.543 L 910.52 644.543 L 910.52 644.543 Q 911.096 644.543 911.432 644.895 L 911.432 644.895 L 911.432 644.895 Q 911.768 645.247 911.768 645.791 L 911.768 645.791 L 911.768 647.423 L 911.768 647.423 Q 912.536 645.983 913.912 645.231 L 913.912 645.231 L 913.912 645.231 Q 915.288 644.479 917.048 644.479 L 917.048 644.479 L 917.048 644.479 Z  M 934.584 658.559 L 934.584 658.559 Q 935.704 658.655 935.704 659.583 L 935.704 659.583 L 935.704 659.583 Q 935.704 660.127 935.304 660.399 L 935.304 660.399 L 935.304 660.399 Q 934.904 660.671 934.104 660.607 L 934.104 660.607 L 933.24 660.543 L 933.24 660.543 Q 930.68 660.351 929.464 659.007 L 929.464 659.007 L 929.464 659.007 Q 928.248 657.663 928.248 654.943 L 928.248 654.943 L 928.248 646.911 L 926.104 646.911 L 926.104 646.911 Q 925.56 646.911 925.256 646.639 L 925.256 646.639 L 925.256 646.639 Q 924.952 646.367 924.952 645.919 L 924.952 645.919 L 924.952 645.919 Q 924.952 645.439 925.256 645.151 L 925.256 645.151 L 925.256 645.151 Q 925.56 644.863 926.104 644.863 L 926.104 644.863 L 928.248 644.863 L 928.248 641.247 L 928.248 641.247 Q 928.248 640.639 928.6 640.303 L 928.6 640.303 L 928.6 640.303 Q 928.952 639.967 929.56 639.967 L 929.56 639.967 L 929.56 639.967 Q 930.136 639.967 930.488 640.303 L 930.488 640.303 L 930.488 640.303 Q 930.84 640.639 930.84 641.247 L 930.84 641.247 L 930.84 644.863 L 934.392 644.863 L 934.392 644.863 Q 934.904 644.863 935.208 645.151 L 935.208 645.151 L 935.208 645.151 Q 935.512 645.439 935.512 645.919 L 935.512 645.919 L 935.512 645.919 Q 935.512 646.367 935.208 646.639 L 935.208 646.639 L 935.208 646.639 Q 934.904 646.911 934.392 646.911 L 934.392 646.911 L 930.84 646.911 L 930.84 655.071 L 930.84 655.071 Q 930.84 656.831 931.56 657.615 L 931.56 657.615 L 931.56 657.615 Q 932.28 658.399 933.72 658.495 L 933.72 658.495 L 934.584 658.559 L 934.584 658.559 Z  M 618.904 656.831 L 618.904 656.831 Q 619.256 656.831 619.512 657.119 L 619.512 657.119 L 619.512 657.119 Q 619.768 657.407 619.768 657.855 L 619.768 657.855 L 619.768 657.855 Q 619.768 658.655 618.648 659.327 L 618.648 659.327 L 618.648 659.327 Q 617.496 659.999 616.216 660.335 L 616.216 660.335 L 616.216 660.335 Q 614.936 660.671 613.72 660.671 L 613.72 660.671 L 613.72 660.671 Q 610.104 660.671 608.008 658.527 L 608.008 658.527 L 608.008 658.527 Q 605.912 656.383 605.912 652.607 L 605.912 652.607 L 605.912 652.607 Q 605.912 650.207 606.84 648.367 L 606.84 648.367 L 606.84 648.367 Q 607.768 646.527 609.448 645.503 L 609.448 645.503 L 609.448 645.503 Q 611.128 644.479 613.272 644.479 L 613.272 644.479 L 613.272 644.479 Q 616.312 644.479 618.104 646.463 L 618.104 646.463 L 618.104 646.463 Q 619.896 648.447 619.896 651.839 L 619.896 651.839 L 619.896 651.839 Q 619.896 652.479 619.64 652.767 L 619.64 652.767 L 619.64 652.767 Q 619.384 653.055 618.808 653.055 L 618.808 653.055 L 608.504 653.055 L 608.504 653.055 Q 608.792 658.559 613.72 658.559 L 613.72 658.559 L 613.72 658.559 Q 614.968 658.559 615.864 658.223 L 615.864 658.223 L 615.864 658.223 Q 616.76 657.887 617.784 657.311 L 617.784 657.311 L 617.784 657.311 Q 618.616 656.831 618.904 656.831 L 618.904 656.831 L 618.904 656.831 Z  M 613.304 646.495 L 613.304 646.495 Q 611.256 646.495 610.024 647.775 L 610.024 647.775 L 610.024 647.775 Q 608.792 649.055 608.568 651.391 L 608.568 651.391 L 617.624 651.391 L 617.624 651.391 Q 617.56 649.023 616.44 647.759 L 616.44 647.759 L 616.44 647.759 Q 615.32 646.495 613.304 646.495 L 613.304 646.495 L 613.304 646.495 Z  M 636.184 658.463 L 636.184 658.463 Q 636.568 658.847 636.568 659.391 L 636.568 659.391 L 636.568 659.391 Q 636.568 659.871 636.216 660.223 L 636.216 660.223 L 636.216 660.223 Q 635.864 660.575 635.384 660.575 L 635.384 660.575 L 635.384 660.575 Q 634.872 660.575 634.456 660.127 L 634.456 660.127 L 629.272 654.207 L 624.12 660.127 L 624.12 660.127 Q 623.704 660.575 623.192 660.575 L 623.192 660.575 L 623.192 660.575 Q 622.712 660.575 622.344 660.223 L 622.344 660.223 L 622.344 660.223 Q 621.976 659.871 621.976 659.359 L 621.976 659.359 L 621.976 659.359 Q 621.976 658.879 622.36 658.463 L 622.36 658.463 L 627.672 652.479 L 622.584 646.687 L 622.584 646.687 Q 622.2 646.239 622.2 645.791 L 622.2 645.791 L 622.2 645.791 Q 622.2 645.279 622.568 644.927 L 622.568 644.927 L 622.568 644.927 Q 622.936 644.575 623.384 644.575 L 623.384 644.575 L 623.384 644.575 Q 623.896 644.575 624.312 645.023 L 624.312 645.023 L 629.272 650.719 L 634.232 645.023 L 634.232 645.023 Q 634.648 644.575 635.16 644.575 L 635.16 644.575 L 635.16 644.575 Q 635.64 644.575 635.992 644.927 L 635.992 644.927 L 635.992 644.927 Q 636.344 645.279 636.344 645.759 L 636.344 645.759 L 636.344 645.759 Q 636.344 646.303 635.96 646.687 L 635.96 646.687 L 630.872 652.479 L 636.184 658.463 L 636.184 658.463 Z  M 647.16 658.559 L 647.16 658.559 Q 648.28 658.655 648.28 659.583 L 648.28 659.583 L 648.28 659.583 Q 648.28 660.127 647.88 660.399 L 647.88 660.399 L 647.88 660.399 Q 647.48 660.671 646.68 660.607 L 646.68 660.607 L 645.816 660.543 L 645.816 660.543 Q 643.256 660.351 642.04 659.007 L 642.04 659.007 L 642.04 659.007 Q 640.824 657.663 640.824 654.943 L 640.824 654.943 L 640.824 646.911 L 638.68 646.911 L 638.68 646.911 Q 638.136 646.911 637.832 646.639 L 637.832 646.639 L 637.832 646.639 Q 637.528 646.367 637.528 645.919 L 637.528 645.919 L 637.528 645.919 Q 637.528 645.439 637.832 645.151 L 637.832 645.151 L 637.832 645.151 Q 638.136 644.863 638.68 644.863 L 638.68 644.863 L 640.824 644.863 L 640.824 641.247 L 640.824 641.247 Q 640.824 640.639 641.176 640.303 L 641.176 640.303 L 641.176 640.303 Q 641.528 639.967 642.136 639.967 L 642.136 639.967 L 642.136 639.967 Q 642.712 639.967 643.064 640.303 L 643.064 640.303 L 643.064 640.303 Q 643.416 640.639 643.416 641.247 L 643.416 641.247 L 643.416 644.863 L 646.968 644.863 L 646.968 644.863 Q 647.48 644.863 647.784 645.151 L 647.784 645.151 L 647.784 645.151 Q 648.088 645.439 648.088 645.919 L 648.088 645.919 L 648.088 645.919 Q 648.088 646.367 647.784 646.639 L 647.784 646.639 L 647.784 646.639 Q 647.48 646.911 646.968 646.911 L 646.968 646.911 L 643.416 646.911 L 643.416 655.071 L 643.416 655.071 Q 643.416 656.831 644.136 657.615 L 644.136 657.615 L 644.136 657.615 Q 644.856 658.399 646.296 658.495 L 646.296 658.495 L 647.16 658.559 L 647.16 658.559 Z  M 662.904 656.831 L 662.904 656.831 Q 663.256 656.831 663.512 657.119 L 663.512 657.119 L 663.512 657.119 Q 663.768 657.407 663.768 657.855 L 663.768 657.855 L 663.768 657.855 Q 663.768 658.655 662.648 659.327 L 662.648 659.327 L 662.648 659.327 Q 661.496 659.999 660.216 660.335 L 660.216 660.335 L 660.216 660.335 Q 658.936 660.671 657.72 660.671 L 657.72 660.671 L 657.72 660.671 Q 654.104 660.671 652.008 658.527 L 652.008 658.527 L 652.008 658.527 Q 649.912 656.383 649.912 652.607 L 649.912 652.607 L 649.912 652.607 Q 649.912 650.207 650.84 648.367 L 650.84 648.367 L 650.84 648.367 Q 651.768 646.527 653.448 645.503 L 653.448 645.503 L 653.448 645.503 Q 655.128 644.479 657.272 644.479 L 657.272 644.479 L 657.272 644.479 Q 660.312 644.479 662.104 646.463 L 662.104 646.463 L 662.104 646.463 Q 663.896 648.447 663.896 651.839 L 663.896 651.839 L 663.896 651.839 Q 663.896 652.479 663.64 652.767 L 663.64 652.767 L 663.64 652.767 Q 663.384 653.055 662.808 653.055 L 662.808 653.055 L 652.504 653.055 L 652.504 653.055 Q 652.792 658.559 657.72 658.559 L 657.72 658.559 L 657.72 658.559 Q 658.968 658.559 659.864 658.223 L 659.864 658.223 L 659.864 658.223 Q 660.76 657.887 661.784 657.311 L 661.784 657.311 L 661.784 657.311 Q 662.616 656.831 662.904 656.831 L 662.904 656.831 L 662.904 656.831 Z  M 657.304 646.495 L 657.304 646.495 Q 655.256 646.495 654.024 647.775 L 654.024 647.775 L 654.024 647.775 Q 652.792 649.055 652.568 651.391 L 652.568 651.391 L 661.624 651.391 L 661.624 651.391 Q 661.56 649.023 660.44 647.759 L 660.44 647.759 L 660.44 647.759 Q 659.32 646.495 657.304 646.495 L 657.304 646.495 L 657.304 646.495 Z  M 675.544 644.479 L 675.544 644.479 Q 681.144 644.479 681.144 650.655 L 681.144 650.655 L 681.144 659.327 L 681.144 659.327 Q 681.144 659.935 680.808 660.271 L 680.808 660.271 L 680.808 660.271 Q 680.472 660.607 679.864 660.607 L 679.864 660.607 L 679.864 660.607 Q 679.256 660.607 678.904 660.271 L 678.904 660.271 L 678.904 660.271 Q 678.552 659.935 678.552 659.327 L 678.552 659.327 L 678.552 650.815 L 678.552 650.815 Q 678.552 648.639 677.704 647.647 L 677.704 647.647 L 677.704 647.647 Q 676.856 646.655 675 646.655 L 675 646.655 L 675 646.655 Q 672.856 646.655 671.576 647.967 L 671.576 647.967 L 671.576 647.967 Q 670.296 649.279 670.296 651.519 L 670.296 651.519 L 670.296 659.327 L 670.296 659.327 Q 670.296 659.935 669.96 660.271 L 669.96 660.271 L 669.96 660.271 Q 669.624 660.607 669.016 660.607 L 669.016 660.607 L 669.016 660.607 Q 668.408 660.607 668.056 660.271 L 668.056 660.271 L 668.056 660.271 Q 667.704 659.935 667.704 659.327 L 667.704 659.327 L 667.704 645.823 L 667.704 645.823 Q 667.704 645.247 668.056 644.895 L 668.056 644.895 L 668.056 644.895 Q 668.408 644.543 669.016 644.543 L 669.016 644.543 L 669.016 644.543 Q 669.592 644.543 669.928 644.895 L 669.928 644.895 L 669.928 644.895 Q 670.264 645.247 670.264 645.791 L 670.264 645.791 L 670.264 647.423 L 670.264 647.423 Q 671.032 645.983 672.408 645.231 L 672.408 645.231 L 672.408 645.231 Q 673.784 644.479 675.544 644.479 L 675.544 644.479 L 675.544 644.479 Z  M 691.128 660.671 L 691.128 660.671 Q 689.656 660.671 688.328 660.319 L 688.328 660.319 L 688.328 660.319 Q 687 659.967 685.976 659.327 L 685.976 659.327 L 685.976 659.327 Q 685.4 658.943 685.16 658.607 L 685.16 658.607 L 685.16 658.607 Q 684.92 658.271 684.92 657.791 L 684.92 657.791 L 684.92 657.791 Q 684.92 657.375 685.16 657.103 L 685.16 657.103 L 685.16 657.103 Q 685.4 656.831 685.784 656.831 L 685.784 656.831 L 685.784 656.831 Q 686.168 656.831 686.904 657.311 L 686.904 657.311 L 686.904 657.311 Q 687.864 657.887 688.808 658.223 L 688.808 658.223 L 688.808 658.223 Q 689.752 658.559 691.16 658.559 L 691.16 658.559 L 691.16 658.559 Q 692.888 658.559 693.848 657.951 L 693.848 657.951 L 693.848 657.951 Q 694.808 657.343 694.808 656.191 L 694.808 656.191 L 694.808 656.191 Q 694.808 655.487 694.456 655.055 L 694.456 655.055 L 694.456 655.055 Q 694.104 654.623 693.24 654.287 L 693.24 654.287 L 693.24 654.287 Q 692.376 653.951 690.712 653.599 L 690.712 653.599 L 690.712 653.599 Q 687.896 652.991 686.68 651.967 L 686.68 651.967 L 686.68 651.967 Q 685.464 650.943 685.464 649.183 L 685.464 649.183 L 685.464 649.183 Q 685.464 647.807 686.232 646.751 L 686.232 646.751 L 686.232 646.751 Q 687 645.695 688.36 645.087 L 688.36 645.087 L 688.36 645.087 Q 689.72 644.479 691.448 644.479 L 691.448 644.479 L 691.448 644.479 Q 692.696 644.479 693.864 644.815 L 693.864 644.815 L 693.864 644.815 Q 695.032 645.151 695.928 645.759 L 695.928 645.759 L 695.928 645.759 Q 697.016 646.527 697.016 647.359 L 697.016 647.359 L 697.016 647.359 Q 697.016 647.775 696.76 648.063 L 696.76 648.063 L 696.76 648.063 Q 696.504 648.351 696.152 648.351 L 696.152 648.351 L 696.152 648.351 Q 695.768 648.351 695 647.807 L 695 647.807 L 695 647.807 Q 694.104 647.231 693.304 646.911 L 693.304 646.911 L 693.304 646.911 Q 692.504 646.591 691.32 646.591 L 691.32 646.591 L 691.32 646.591 Q 689.816 646.591 688.904 647.263 L 688.904 647.263 L 688.904 647.263 Q 687.992 647.935 687.992 649.055 L 687.992 649.055 L 687.992 649.055 Q 687.992 649.759 688.328 650.191 L 688.328 650.191 L 688.328 650.191 Q 688.664 650.623 689.448 650.959 L 689.448 650.959 L 689.448 650.959 Q 690.232 651.295 691.704 651.615 L 691.704 651.615 L 691.704 651.615 Q 693.88 652.095 695.08 652.671 L 695.08 652.671 L 695.08 652.671 Q 696.28 653.247 696.792 654.079 L 696.792 654.079 L 696.792 654.079 Q 697.304 654.911 697.304 656.191 L 697.304 656.191 L 697.304 656.191 Q 697.304 658.207 695.608 659.439 L 695.608 659.439 L 695.608 659.439 Q 693.912 660.671 691.128 660.671 L 691.128 660.671 L 691.128 660.671 Z  M 702.552 660.607 L 702.552 660.607 Q 701.976 660.607 701.608 660.271 L 701.608 660.271 L 701.608 660.271 Q 701.24 659.935 701.24 659.327 L 701.24 659.327 L 701.24 645.823 L 701.24 645.823 Q 701.24 645.215 701.608 644.879 L 701.608 644.879 L 701.608 644.879 Q 701.976 644.543 702.552 644.543 L 702.552 644.543 L 702.552 644.543 Q 703.128 644.543 703.48 644.879 L 703.48 644.879 L 703.48 644.879 Q 703.832 645.215 703.832 645.823 L 703.832 645.823 L 703.832 659.327 L 703.832 659.327 Q 703.832 659.967 703.48 660.287 L 703.48 660.287 L 703.48 660.287 Q 703.128 660.607 702.552 660.607 L 702.552 660.607 L 702.552 660.607 Z  M 702.552 641.183 L 702.552 641.183 Q 701.784 641.183 701.304 640.735 L 701.304 640.735 L 701.304 640.735 Q 700.824 640.287 700.824 639.551 L 700.824 639.551 L 700.824 639.551 Q 700.824 638.847 701.304 638.399 L 701.304 638.399 L 701.304 638.399 Q 701.784 637.951 702.552 637.951 L 702.552 637.951 L 702.552 637.951 Q 703.32 637.951 703.8 638.399 L 703.8 638.399 L 703.8 638.399 Q 704.28 638.847 704.28 639.551 L 704.28 639.551 L 704.28 639.551 Q 704.28 640.287 703.8 640.735 L 703.8 640.735 L 703.8 640.735 Q 703.32 641.183 702.552 641.183 L 702.552 641.183 L 702.552 641.183 Z  M 715.128 660.671 L 715.128 660.671 Q 712.92 660.671 711.24 659.679 L 711.24 659.679 L 711.24 659.679 Q 709.56 658.687 708.648 656.847 L 708.648 656.847 L 708.648 656.847 Q 707.736 655.007 707.736 652.575 L 707.736 652.575 L 707.736 652.575 Q 707.736 650.143 708.648 648.303 L 708.648 648.303 L 708.648 648.303 Q 709.56 646.463 711.24 645.471 L 711.24 645.471 L 711.24 645.471 Q 712.92 644.479 715.128 644.479 L 715.128 644.479 L 715.128 644.479 Q 717.336 644.479 719.032 645.471 L 719.032 645.471 L 719.032 645.471 Q 720.728 646.463 721.64 648.303 L 721.64 648.303 L 721.64 648.303 Q 722.552 650.143 722.552 652.575 L 722.552 652.575 L 722.552 652.575 Q 722.552 655.007 721.64 656.847 L 721.64 656.847 L 721.64 656.847 Q 720.728 658.687 719.032 659.679 L 719.032 659.679 L 719.032 659.679 Q 717.336 660.671 715.128 660.671 L 715.128 660.671 L 715.128 660.671 Z  M 715.128 658.527 L 715.128 658.527 Q 717.432 658.527 718.664 657.007 L 718.664 657.007 L 718.664 657.007 Q 719.896 655.487 719.896 652.575 L 719.896 652.575 L 719.896 652.575 Q 719.896 649.727 718.648 648.175 L 718.648 648.175 L 718.648 648.175 Q 717.4 646.623 715.128 646.623 L 715.128 646.623 L 715.128 646.623 Q 712.856 646.623 711.608 648.175 L 711.608 648.175 L 711.608 648.175 Q 710.36 649.727 710.36 652.575 L 710.36 652.575 L 710.36 652.575 Q 710.36 655.455 711.592 656.991 L 711.592 656.991 L 711.592 656.991 Q 712.824 658.527 715.128 658.527 L 715.128 658.527 L 715.128 658.527 Z  M 734.264 644.479 L 734.264 644.479 Q 739.864 644.479 739.864 650.655 L 739.864 650.655 L 739.864 659.327 L 739.864 659.327 Q 739.864 659.935 739.528 660.271 L 739.528 660.271 L 739.528 660.271 Q 739.192 660.607 738.584 660.607 L 738.584 660.607 L 738.584 660.607 Q 737.976 660.607 737.624 660.271 L 737.624 660.271 L 737.624 660.271 Q 737.272 659.935 737.272 659.327 L 737.272 659.327 L 737.272 650.815 L 737.272 650.815 Q 737.272 648.639 736.424 647.647 L 736.424 647.647 L 736.424 647.647 Q 735.576 646.655 733.72 646.655 L 733.72 646.655 L 733.72 646.655 Q 731.576 646.655 730.296 647.967 L 730.296 647.967 L 730.296 647.967 Q 729.016 649.279 729.016 651.519 L 729.016 651.519 L 729.016 659.327 L 729.016 659.327 Q 729.016 659.935 728.68 660.271 L 728.68 660.271 L 728.68 660.271 Q 728.344 660.607 727.736 660.607 L 727.736 660.607 L 727.736 660.607 Q 727.128 660.607 726.776 660.271 L 726.776 660.271 L 726.776 660.271 Q 726.424 659.935 726.424 659.327 L 726.424 659.327 L 726.424 645.823 L 726.424 645.823 Q 726.424 645.247 726.776 644.895 L 726.776 644.895 L 726.776 644.895 Q 727.128 644.543 727.736 644.543 L 727.736 644.543 L 727.736 644.543 Q 728.312 644.543 728.648 644.895 L 728.648 644.895 L 728.648 644.895 Q 728.984 645.247 728.984 645.791 L 728.984 645.791 L 728.984 647.423 L 728.984 647.423 Q 729.752 645.983 731.128 645.231 L 731.128 645.231 L 731.128 645.231 Q 732.504 644.479 734.264 644.479 L 734.264 644.479 L 734.264 644.479 Z  M 499.416 638.399 L 499.416 638.399 Q 499.576 638.047 499.88 637.855 L 499.88 637.855 L 499.88 637.855 Q 500.184 637.663 500.536 637.663 L 500.536 637.663 L 500.536 637.663 Q 501.048 637.663 501.448 637.999 L 501.448 637.999 L 501.448 637.999 Q 501.848 638.335 501.848 638.815 L 501.848 638.815 L 501.848 638.815 Q 501.848 639.071 501.72 639.327 L 501.72 639.327 L 492.536 659.743 L 492.536 659.743 Q 492.344 660.159 491.96 660.383 L 491.96 660.383 L 491.96 660.383 Q 491.576 660.607 491.128 660.607 L 491.128 660.607 L 491.128 660.607 Q 490.68 660.607 490.296 660.383 L 490.296 660.383 L 490.296 660.383 Q 489.912 660.159 489.72 659.743 L 489.72 659.743 L 480.568 639.327 L 480.568 639.327 Q 480.472 639.071 480.472 638.847 L 480.472 638.847 L 480.472 638.847 Q 480.472 638.335 480.888 637.999 L 480.888 637.999 L 480.888 637.999 Q 481.304 637.663 481.816 637.663 L 481.816 637.663 L 481.816 637.663 Q 482.584 637.663 482.936 638.399 L 482.936 638.399 L 491.192 657.055 L 499.416 638.399 L 499.416 638.399 Z  M 511.832 660.703 L 511.832 660.703 Q 509.432 660.703 507.24 659.983 L 507.24 659.983 L 507.24 659.983 Q 505.048 659.263 503.736 658.047 L 503.736 658.047 L 503.736 658.047 Q 503.256 657.599 503.256 656.927 L 503.256 656.927 L 503.256 656.927 Q 503.256 656.479 503.512 656.143 L 503.512 656.143 L 503.512 656.143 Q 503.768 655.807 504.12 655.807 L 504.12 655.807 L 504.12 655.807 Q 504.536 655.807 505.016 656.159 L 505.016 656.159 L 505.016 656.159 Q 507.992 658.463 511.8 658.463 L 511.8 658.463 L 511.8 658.463 Q 514.552 658.463 516.024 657.407 L 516.024 657.407 L 516.024 657.407 Q 517.496 656.351 517.496 654.399 L 517.496 654.399 L 517.496 654.399 Q 517.496 653.279 516.792 652.591 L 516.792 652.591 L 516.792 652.591 Q 516.088 651.903 514.936 651.487 L 514.936 651.487 L 514.936 651.487 Q 513.784 651.071 511.832 650.623 L 511.832 650.623 L 511.832 650.623 Q 509.208 650.015 507.528 649.343 L 507.528 649.343 L 507.528 649.343 Q 505.848 648.671 504.808 647.423 L 504.808 647.423 L 504.808 647.423 Q 503.768 646.175 503.768 644.159 L 503.768 644.159 L 503.768 644.159 Q 503.768 642.239 504.808 640.751 L 504.808 640.751 L 504.808 640.751 Q 505.848 639.263 507.72 638.447 L 507.72 638.447 L 507.72 638.447 Q 509.592 637.631 511.992 637.631 L 511.992 637.631 L 511.992 637.631 Q 514.232 637.631 516.168 638.319 L 516.168 638.319 L 516.168 638.319 Q 518.104 639.007 519.416 640.287 L 519.416 640.287 L 519.416 640.287 Q 519.928 640.799 519.928 641.407 L 519.928 641.407 L 519.928 641.407 Q 519.928 641.855 519.672 642.191 L 519.672 642.191 L 519.672 642.191 Q 519.416 642.527 519.064 642.527 L 519.064 642.527 L 519.064 642.527 Q 518.712 642.527 518.136 642.175 L 518.136 642.175 L 518.136 642.175 Q 516.568 640.895 515.224 640.383 L 515.224 640.383 L 515.224 640.383 Q 513.88 639.871 511.992 639.871 L 511.992 639.871 L 511.992 639.871 Q 509.336 639.871 507.864 640.975 L 507.864 640.975 L 507.864 640.975 Q 506.392 642.079 506.392 644.063 L 506.392 644.063 L 506.392 644.063 Q 506.392 645.759 507.688 646.607 L 507.688 646.607 L 507.688 646.607 Q 508.984 647.455 511.672 648.095 L 511.672 648.095 L 511.672 648.095 Q 514.584 648.799 516.248 649.391 L 516.248 649.391 L 516.248 649.391 Q 517.912 649.983 519.016 651.167 L 519.016 651.167 L 519.016 651.167 Q 520.12 652.351 520.12 654.335 L 520.12 654.335 L 520.12 654.335 Q 520.12 656.223 519.08 657.663 L 519.08 657.663 L 519.08 657.663 Q 518.04 659.103 516.152 659.903 L 516.152 659.903 L 516.152 659.903 Q 514.264 660.703 511.832 660.703 L 511.832 660.703 L 511.832 660.703 Z  M 533.944 660.703 L 533.944 660.703 Q 530.744 660.703 528.408 659.311 L 528.408 659.311 L 528.408 659.311 Q 526.072 657.919 524.808 655.311 L 524.808 655.311 L 524.808 655.311 Q 523.544 652.703 523.544 649.151 L 523.544 649.151 L 523.544 649.151 Q 523.544 645.631 524.808 643.023 L 524.808 643.023 L 524.808 643.023 Q 526.072 640.415 528.408 639.023 L 528.408 639.023 L 528.408 639.023 Q 530.744 637.631 533.944 637.631 L 533.944 637.631 L 533.944 637.631 Q 536.088 637.631 537.992 638.319 L 537.992 638.319 L 537.992 638.319 Q 539.896 639.007 541.304 640.287 L 541.304 640.287 L 541.304 640.287 Q 541.816 640.767 541.816 641.407 L 541.816 641.407 L 541.816 641.407 Q 541.816 641.855 541.56 642.191 L 541.56 642.191 L 541.56 642.191 Q 541.304 642.527 540.952 642.527 L 540.952 642.527 L 540.952 642.527 Q 540.568 642.527 540.024 642.175 L 540.024 642.175 L 540.024 642.175 Q 538.392 640.895 537.064 640.383 L 537.064 640.383 L 537.064 640.383 Q 535.736 639.871 534.008 639.871 L 534.008 639.871 L 534.008 639.871 Q 530.296 639.871 528.296 642.287 L 528.296 642.287 L 528.296 642.287 Q 526.296 644.703 526.296 649.151 L 526.296 649.151 L 526.296 649.151 Q 526.296 653.631 528.296 656.047 L 528.296 656.047 L 528.296 656.047 Q 530.296 658.463 534.008 658.463 L 534.008 658.463 L 534.008 658.463 Q 535.704 658.463 537.048 657.951 L 537.048 657.951 L 537.048 657.951 Q 538.392 657.439 540.024 656.159 L 540.024 656.159 L 540.024 656.159 Q 540.568 655.807 540.952 655.807 L 540.952 655.807 L 540.952 655.807 Q 541.304 655.807 541.56 656.127 L 541.56 656.127 L 541.56 656.127 Q 541.816 656.447 541.816 656.927 L 541.816 656.927 L 541.816 656.927 Q 541.816 657.567 541.304 658.047 L 541.304 658.047 L 541.304 658.047 Q 539.896 659.327 537.992 660.015 L 537.992 660.015 L 537.992 660.015 Q 536.088 660.703 533.944 660.703 L 533.944 660.703 L 533.944 660.703 Z  M 551.8 660.671 L 551.8 660.671 Q 549.592 660.671 547.912 659.679 L 547.912 659.679 L 547.912 659.679 Q 546.232 658.687 545.32 656.847 L 545.32 656.847 L 545.32 656.847 Q 544.408 655.007 544.408 652.575 L 544.408 652.575 L 544.408 652.575 Q 544.408 650.143 545.32 648.303 L 545.32 648.303 L 545.32 648.303 Q 546.232 646.463 547.912 645.471 L 547.912 645.471 L 547.912 645.471 Q 549.592 644.479 551.8 644.479 L 551.8 644.479 L 551.8 644.479 Q 554.008 644.479 555.704 645.471 L 555.704 645.471 L 555.704 645.471 Q 557.4 646.463 558.312 648.303 L 558.312 648.303 L 558.312 648.303 Q 559.224 650.143 559.224 652.575 L 559.224 652.575 L 559.224 652.575 Q 559.224 655.007 558.312 656.847 L 558.312 656.847 L 558.312 656.847 Q 557.4 658.687 555.704 659.679 L 555.704 659.679 L 555.704 659.679 Q 554.008 660.671 551.8 660.671 L 551.8 660.671 L 551.8 660.671 Z  M 551.8 658.527 L 551.8 658.527 Q 554.104 658.527 555.336 657.007 L 555.336 657.007 L 555.336 657.007 Q 556.568 655.487 556.568 652.575 L 556.568 652.575 L 556.568 652.575 Q 556.568 649.727 555.32 648.175 L 555.32 648.175 L 555.32 648.175 Q 554.072 646.623 551.8 646.623 L 551.8 646.623 L 551.8 646.623 Q 549.528 646.623 548.28 648.175 L 548.28 648.175 L 548.28 648.175 Q 547.032 649.727 547.032 652.575 L 547.032 652.575 L 547.032 652.575 Q 547.032 655.455 548.264 656.991 L 548.264 656.991 L 548.264 656.991 Q 549.496 658.527 551.8 658.527 L 551.8 658.527 L 551.8 658.527 Z  M 575.608 637.727 L 575.608 637.727 Q 576.216 637.727 576.568 638.079 L 576.568 638.079 L 576.568 638.079 Q 576.92 638.431 576.92 638.975 L 576.92 638.975 L 576.92 659.327 L 576.92 659.327 Q 576.92 659.903 576.568 660.255 L 576.568 660.255 L 576.568 660.255 Q 576.216 660.607 575.608 660.607 L 575.608 660.607 L 575.608 660.607 Q 575 660.607 574.664 660.255 L 574.664 660.255 L 574.664 660.255 Q 574.328 659.903 574.328 659.327 L 574.328 659.327 L 574.328 657.599 L 574.328 657.599 Q 573.624 659.071 572.264 659.871 L 572.264 659.871 L 572.264 659.871 Q 570.904 660.671 569.08 660.671 L 569.08 660.671 L 569.08 660.671 Q 567.032 660.671 565.464 659.647 L 565.464 659.647 L 565.464 659.647 Q 563.896 658.623 563.032 656.783 L 563.032 656.783 L 563.032 656.783 Q 562.168 654.943 562.168 652.511 L 562.168 652.511 L 562.168 652.511 Q 562.168 650.111 563.032 648.287 L 563.032 648.287 L 563.032 648.287 Q 563.896 646.463 565.464 645.471 L 565.464 645.471 L 565.464 645.471 Q 567.032 644.479 569.08 644.479 L 569.08 644.479 L 569.08 644.479 Q 570.904 644.479 572.264 645.279 L 572.264 645.279 L 572.264 645.279 Q 573.624 646.079 574.328 647.551 L 574.328 647.551 L 574.328 638.975 L 574.328 638.975 Q 574.328 638.399 574.664 638.063 L 574.664 638.063 L 574.664 638.063 Q 575 637.727 575.608 637.727 L 575.608 637.727 L 575.608 637.727 Z  M 569.592 658.527 L 569.592 658.527 Q 571.864 658.527 573.096 656.975 L 573.096 656.975 L 573.096 656.975 Q 574.328 655.423 574.328 652.575 L 574.328 652.575 L 574.328 652.575 Q 574.328 649.727 573.096 648.191 L 573.096 648.191 L 573.096 648.191 Q 571.864 646.655 569.592 646.655 L 569.592 646.655 L 569.592 646.655 Q 567.32 646.655 566.056 648.191 L 566.056 648.191 L 566.056 648.191 Q 564.792 649.727 564.792 652.511 L 564.792 652.511 L 564.792 652.511 Q 564.792 655.359 566.056 656.943 L 566.056 656.943 L 566.056 656.943 Q 567.32 658.527 569.592 658.527 L 569.592 658.527 L 569.592 658.527 Z  M 593.784 656.831 L 593.784 656.831 Q 594.136 656.831 594.392 657.119 L 594.392 657.119 L 594.392 657.119 Q 594.648 657.407 594.648 657.855 L 594.648 657.855 L 594.648 657.855 Q 594.648 658.655 593.528 659.327 L 593.528 659.327 L 593.528 659.327 Q 592.376 659.999 591.096 660.335 L 591.096 660.335 L 591.096 660.335 Q 589.816 660.671 588.6 660.671 L 588.6 660.671 L 588.6 660.671 Q 584.984 660.671 582.888 658.527 L 582.888 658.527 L 582.888 658.527 Q 580.792 656.383 580.792 652.607 L 580.792 652.607 L 580.792 652.607 Q 580.792 650.207 581.72 648.367 L 581.72 648.367 L 581.72 648.367 Q 582.648 646.527 584.328 645.503 L 584.328 645.503 L 584.328 645.503 Q 586.008 644.479 588.152 644.479 L 588.152 644.479 L 588.152 644.479 Q 591.192 644.479 592.984 646.463 L 592.984 646.463 L 592.984 646.463 Q 594.776 648.447 594.776 651.839 L 594.776 651.839 L 594.776 651.839 Q 594.776 652.479 594.52 652.767 L 594.52 652.767 L 594.52 652.767 Q 594.264 653.055 593.688 653.055 L 593.688 653.055 L 583.384 653.055 L 583.384 653.055 Q 583.672 658.559 588.6 658.559 L 588.6 658.559 L 588.6 658.559 Q 589.848 658.559 590.744 658.223 L 590.744 658.223 L 590.744 658.223 Q 591.64 657.887 592.664 657.311 L 592.664 657.311 L 592.664 657.311 Q 593.496 656.831 593.784 656.831 L 593.784 656.831 L 593.784 656.831 Z  M 588.184 646.495 L 588.184 646.495 Q 586.136 646.495 584.904 647.775 L 584.904 647.775 L 584.904 647.775 Q 583.672 649.055 583.448 651.391 L 583.448 651.391 L 592.504 651.391 L 592.504 651.391 Q 592.44 649.023 591.32 647.759 L 591.32 647.759 L 591.32 647.759 Q 590.2 646.495 588.184 646.495 L 588.184 646.495 L 588.184 646.495 Z  M 441.72 639.935 L 441.72 639.935 Q 440.024 640.063 439.16 641.007 L 439.16 641.007 L 439.16 641.007 Q 438.296 641.951 438.296 643.839 L 438.296 643.839 L 438.296 644.863 L 441.848 644.863 L 441.848 644.863 Q 442.392 644.863 442.68 645.151 L 442.68 645.151 L 442.68 645.151 Q 442.968 645.439 442.968 645.919 L 442.968 645.919 L 442.968 645.919 Q 442.968 646.399 442.68 646.655 L 442.68 646.655 L 442.68 646.655 Q 442.392 646.911 441.848 646.911 L 441.848 646.911 L 438.296 646.911 L 438.296 659.327 L 438.296 659.327 Q 438.296 659.935 437.928 660.271 L 437.928 660.271 L 437.928 660.271 Q 437.56 660.607 437.016 660.607 L 437.016 660.607 L 437.016 660.607 Q 436.44 660.607 436.072 660.271 L 436.072 660.271 L 436.072 660.271 Q 435.704 659.935 435.704 659.327 L 435.704 659.327 L 435.704 646.911 L 433.56 646.911 L 433.56 646.911 Q 433.016 646.911 432.712 646.639 L 432.712 646.639 L 432.712 646.639 Q 432.408 646.367 432.408 645.919 L 432.408 645.919 L 432.408 645.919 Q 432.408 645.439 432.712 645.151 L 432.712 645.151 L 432.712 645.151 Q 433.016 644.863 433.56 644.863 L 433.56 644.863 L 435.704 644.863 L 435.704 644.287 L 435.704 644.287 Q 435.704 641.407 437.144 639.759 L 437.144 639.759 L 437.144 639.759 Q 438.584 638.111 441.272 637.919 L 441.272 637.919 L 442.104 637.855 L 442.104 637.855 Q 442.936 637.791 443.304 638.015 L 443.304 638.015 L 443.304 638.015 Q 443.672 638.239 443.672 638.815 L 443.672 638.815 L 443.672 638.815 Q 443.672 639.743 442.552 639.871 L 442.552 639.871 L 441.72 639.935 L 441.72 639.935 Z  M 451.64 660.671 L 451.64 660.671 Q 449.432 660.671 447.752 659.679 L 447.752 659.679 L 447.752 659.679 Q 446.072 658.687 445.16 656.847 L 445.16 656.847 L 445.16 656.847 Q 444.248 655.007 444.248 652.575 L 444.248 652.575 L 444.248 652.575 Q 444.248 650.143 445.16 648.303 L 445.16 648.303 L 445.16 648.303 Q 446.072 646.463 447.752 645.471 L 447.752 645.471 L 447.752 645.471 Q 449.432 644.479 451.64 644.479 L 451.64 644.479 L 451.64 644.479 Q 453.848 644.479 455.544 645.471 L 455.544 645.471 L 455.544 645.471 Q 457.24 646.463 458.152 648.303 L 458.152 648.303 L 458.152 648.303 Q 459.064 650.143 459.064 652.575 L 459.064 652.575 L 459.064 652.575 Q 459.064 655.007 458.152 656.847 L 458.152 656.847 L 458.152 656.847 Q 457.24 658.687 455.544 659.679 L 455.544 659.679 L 455.544 659.679 Q 453.848 660.671 451.64 660.671 L 451.64 660.671 L 451.64 660.671 Z  M 451.64 658.527 L 451.64 658.527 Q 453.944 658.527 455.176 657.007 L 455.176 657.007 L 455.176 657.007 Q 456.408 655.487 456.408 652.575 L 456.408 652.575 L 456.408 652.575 Q 456.408 649.727 455.16 648.175 L 455.16 648.175 L 455.16 648.175 Q 453.912 646.623 451.64 646.623 L 451.64 646.623 L 451.64 646.623 Q 449.368 646.623 448.12 648.175 L 448.12 648.175 L 448.12 648.175 Q 446.872 649.727 446.872 652.575 L 446.872 652.575 L 446.872 652.575 Q 446.872 655.455 448.104 656.991 L 448.104 656.991 L 448.104 656.991 Q 449.336 658.527 451.64 658.527 L 451.64 658.527 L 451.64 658.527 Z  M 470.648 644.543 L 470.648 644.543 Q 471.992 644.447 471.992 645.631 L 471.992 645.631 L 471.992 645.631 Q 471.992 646.143 471.704 646.447 L 471.704 646.447 L 471.704 646.447 Q 471.416 646.751 470.712 646.815 L 470.712 646.815 L 469.752 646.911 L 469.752 646.911 Q 467.608 647.103 466.568 648.431 L 466.568 648.431 L 466.568 648.431 Q 465.528 649.759 465.528 651.551 L 465.528 651.551 L 465.528 659.327 L 465.528 659.327 Q 465.528 659.967 465.176 660.287 L 465.176 660.287 L 465.176 660.287 Q 464.824 660.607 464.248 660.607 L 464.248 660.607 L 464.248 660.607 Q 463.672 660.607 463.304 660.271 L 463.304 660.271 L 463.304 660.271 Q 462.936 659.935 462.936 659.327 L 462.936 659.327 L 462.936 645.823 L 462.936 645.823 Q 462.936 645.215 463.32 644.879 L 463.32 644.879 L 463.32 644.879 Q 463.704 644.543 464.248 644.543 L 464.248 644.543 L 464.248 644.543 Q 464.76 644.543 465.112 644.879 L 465.112 644.879 L 465.112 644.879 Q 465.464 645.215 465.464 645.791 L 465.464 645.791 L 465.464 647.583 L 465.464 647.583 Q 466.136 646.175 467.368 645.439 L 467.368 645.439 L 467.368 645.439 Q 468.6 644.703 470.2 644.575 L 470.2 644.575 L 470.648 644.543 L 470.648 644.543 Z  M 362.136 658.815 L 362.136 658.815 Q 362.36 659.167 362.36 659.551 L 362.36 659.551 L 362.36 659.551 Q 362.36 660.031 361.992 660.335 L 361.992 660.335 L 361.992 660.335 Q 361.624 660.639 361.144 660.639 L 361.144 660.639 L 361.144 660.639 Q 360.408 660.639 359.992 659.999 L 359.992 659.999 L 355.704 653.215 L 355.704 653.215 Q 354.872 651.903 353.976 651.407 L 353.976 651.407 L 353.976 651.407 Q 353.08 650.911 351.544 650.911 L 351.544 650.911 L 347.512 650.911 L 347.512 659.263 L 347.512 659.263 Q 347.512 659.871 347.16 660.239 L 347.16 660.239 L 347.16 660.239 Q 346.808 660.607 346.232 660.607 L 346.232 660.607 L 346.232 660.607 Q 345.624 660.607 345.272 660.239 L 345.272 660.239 L 345.272 660.239 Q 344.92 659.871 344.92 659.263 L 344.92 659.263 L 344.92 639.167 L 344.92 639.167 Q 344.92 638.591 345.288 638.239 L 345.288 638.239 L 345.288 638.239 Q 345.656 637.887 346.264 637.887 L 346.264 637.887 L 354.2 637.887 L 354.2 637.887 Q 357.88 637.887 359.816 639.519 L 359.816 639.519 L 359.816 639.519 Q 361.752 641.151 361.752 644.319 L 361.752 644.319 L 361.752 644.319 Q 361.752 647.007 360.2 648.639 L 360.2 648.639 L 360.2 648.639 Q 358.648 650.271 355.768 650.623 L 355.768 650.623 L 355.768 650.623 Q 356.568 650.879 357.208 651.455 L 357.208 651.455 L 357.208 651.455 Q 357.848 652.031 358.488 653.055 L 358.488 653.055 L 362.136 658.815 L 362.136 658.815 Z  M 347.512 648.735 L 353.976 648.735 L 353.976 648.735 Q 356.6 648.735 357.896 647.647 L 357.896 647.647 L 357.896 647.647 Q 359.192 646.559 359.192 644.351 L 359.192 644.351 L 359.192 644.351 Q 359.192 642.175 357.912 641.119 L 357.912 641.119 L 357.912 641.119 Q 356.632 640.063 353.976 640.063 L 353.976 640.063 L 347.512 640.063 L 347.512 648.735 L 347.512 648.735 Z  M 378.552 656.831 L 378.552 656.831 Q 378.904 656.831 379.16 657.119 L 379.16 657.119 L 379.16 657.119 Q 379.416 657.407 379.416 657.855 L 379.416 657.855 L 379.416 657.855 Q 379.416 658.655 378.296 659.327 L 378.296 659.327 L 378.296 659.327 Q 377.144 659.999 375.864 660.335 L 375.864 660.335 L 375.864 660.335 Q 374.584 660.671 373.368 660.671 L 373.368 660.671 L 373.368 660.671 Q 369.752 660.671 367.656 658.527 L 367.656 658.527 L 367.656 658.527 Q 365.56 656.383 365.56 652.607 L 365.56 652.607 L 365.56 652.607 Q 365.56 650.207 366.488 648.367 L 366.488 648.367 L 366.488 648.367 Q 367.416 646.527 369.096 645.503 L 369.096 645.503 L 369.096 645.503 Q 370.776 644.479 372.92 644.479 L 372.92 644.479 L 372.92 644.479 Q 375.96 644.479 377.752 646.463 L 377.752 646.463 L 377.752 646.463 Q 379.544 648.447 379.544 651.839 L 379.544 651.839 L 379.544 651.839 Q 379.544 652.479 379.288 652.767 L 379.288 652.767 L 379.288 652.767 Q 379.032 653.055 378.456 653.055 L 378.456 653.055 L 368.152 653.055 L 368.152 653.055 Q 368.44 658.559 373.368 658.559 L 373.368 658.559 L 373.368 658.559 Q 374.616 658.559 375.512 658.223 L 375.512 658.223 L 375.512 658.223 Q 376.408 657.887 377.432 657.311 L 377.432 657.311 L 377.432 657.311 Q 378.264 656.831 378.552 656.831 L 378.552 656.831 L 378.552 656.831 Z  M 372.952 646.495 L 372.952 646.495 Q 370.904 646.495 369.672 647.775 L 369.672 647.775 L 369.672 647.775 Q 368.44 649.055 368.216 651.391 L 368.216 651.391 L 377.272 651.391 L 377.272 651.391 Q 377.208 649.023 376.088 647.759 L 376.088 647.759 L 376.088 647.759 Q 374.968 646.495 372.952 646.495 L 372.952 646.495 L 372.952 646.495 Z  M 389.72 644.479 L 389.72 644.479 Q 395.576 644.479 395.576 650.623 L 395.576 650.623 L 395.576 659.327 L 395.576 659.327 Q 395.576 659.903 395.24 660.255 L 395.24 660.255 L 395.24 660.255 Q 394.904 660.607 394.328 660.607 L 394.328 660.607 L 394.328 660.607 Q 393.752 660.607 393.4 660.255 L 393.4 660.255 L 393.4 660.255 Q 393.048 659.903 393.048 659.327 L 393.048 659.327 L 393.048 657.791 L 393.048 657.791 Q 392.44 659.167 391.192 659.919 L 391.192 659.919 L 391.192 659.919 Q 389.944 660.671 388.312 660.671 L 388.312 660.671 L 388.312 660.671 Q 386.808 660.671 385.544 660.063 L 385.544 660.063 L 385.544 660.063 Q 384.28 659.455 383.544 658.367 L 383.544 658.367 L 383.544 658.367 Q 382.808 657.279 382.808 655.967 L 382.808 655.967 L 382.808 655.967 Q 382.808 654.207 383.704 653.231 L 383.704 653.231 L 383.704 653.231 Q 384.6 652.255 386.648 651.823 L 386.648 651.823 L 386.648 651.823 Q 388.696 651.391 392.344 651.391 L 392.344 651.391 L 393.048 651.391 L 393.048 650.335 L 393.048 650.335 Q 393.048 648.415 392.264 647.519 L 392.264 647.519 L 392.264 647.519 Q 391.48 646.623 389.72 646.623 L 389.72 646.623 L 389.72 646.623 Q 387.544 646.623 385.304 647.807 L 385.304 647.807 L 385.304 647.807 Q 384.44 648.351 384.088 648.351 L 384.088 648.351 L 384.088 648.351 Q 383.704 648.351 383.448 648.063 L 383.448 648.063 L 383.448 648.063 Q 383.192 647.775 383.192 647.327 L 383.192 647.327 L 383.192 647.327 Q 383.192 646.879 383.464 646.543 L 383.464 646.543 L 383.464 646.543 Q 383.736 646.207 384.344 645.855 L 384.344 645.855 L 384.344 645.855 Q 385.464 645.215 386.888 644.847 L 386.888 644.847 L 386.888 644.847 Q 388.312 644.479 389.72 644.479 L 389.72 644.479 L 389.72 644.479 Z  M 388.664 658.623 L 388.664 658.623 Q 390.584 658.623 391.816 657.327 L 391.816 657.327 L 391.816 657.327 Q 393.048 656.031 393.048 653.983 L 393.048 653.983 L 393.048 653.055 L 392.472 653.055 L 392.472 653.055 Q 389.656 653.055 388.184 653.295 L 388.184 653.295 L 388.184 653.295 Q 386.712 653.535 386.088 654.095 L 386.088 654.095 L 386.088 654.095 Q 385.464 654.655 385.464 655.743 L 385.464 655.743 L 385.464 655.743 Q 385.464 656.991 386.376 657.807 L 386.376 657.807 L 386.376 657.807 Q 387.288 658.623 388.664 658.623 L 388.664 658.623 L 388.664 658.623 Z  M 406.744 660.671 L 406.744 660.671 Q 404.568 660.671 402.888 659.679 L 402.888 659.679 L 402.888 659.679 Q 401.208 658.687 400.296 656.863 L 400.296 656.863 L 400.296 656.863 Q 399.384 655.039 399.384 652.639 L 399.384 652.639 L 399.384 652.639 Q 399.384 650.239 400.328 648.383 L 400.328 648.383 L 400.328 648.383 Q 401.272 646.527 402.968 645.503 L 402.968 645.503 L 402.968 645.503 Q 404.664 644.479 406.872 644.479 L 406.872 644.479 L 406.872 644.479 Q 408.088 644.479 409.288 644.815 L 409.288 644.815 L 409.288 644.815 Q 410.488 645.151 411.384 645.791 L 411.384 645.791 L 411.384 645.791 Q 411.96 646.175 412.2 646.543 L 412.2 646.543 L 412.2 646.543 Q 412.44 646.911 412.44 647.359 L 412.44 647.359 L 412.44 647.359 Q 412.44 647.807 412.2 648.095 L 412.2 648.095 L 412.2 648.095 Q 411.96 648.383 411.576 648.383 L 411.576 648.383 L 411.576 648.383 Q 411.352 648.383 411.096 648.255 L 411.096 648.255 L 411.096 648.255 Q 410.84 648.127 410.664 647.999 L 410.664 647.999 L 410.664 647.999 Q 410.488 647.871 410.424 647.839 L 410.424 647.839 L 410.424 647.839 Q 409.592 647.295 408.84 646.975 L 408.84 646.975 L 408.84 646.975 Q 408.088 646.655 407 646.655 L 407 646.655 L 407 646.655 Q 404.664 646.655 403.368 648.239 L 403.368 648.239 L 403.368 648.239 Q 402.072 649.823 402.072 652.639 L 402.072 652.639 L 402.072 652.639 Q 402.072 655.455 403.368 656.991 L 403.368 656.991 L 403.368 656.991 Q 404.664 658.527 407 658.527 L 407 658.527 L 407 658.527 Q 408.088 658.527 408.872 658.207 L 408.872 658.207 L 408.872 658.207 Q 409.656 657.887 410.456 657.343 L 410.456 657.343 L 410.456 657.343 Q 410.808 657.119 411.128 656.959 L 411.128 656.959 L 411.128 656.959 Q 411.448 656.799 411.672 656.799 L 411.672 656.799 L 411.672 656.799 Q 412.024 656.799 412.264 657.087 L 412.264 657.087 L 412.264 657.087 Q 412.504 657.375 412.504 657.823 L 412.504 657.823 L 412.504 657.823 Q 412.504 658.239 412.28 658.575 L 412.28 658.575 L 412.28 658.575 Q 412.056 658.911 411.448 659.327 L 411.448 659.327 L 411.448 659.327 Q 410.552 659.935 409.288 660.303 L 409.288 660.303 L 409.288 660.303 Q 408.024 660.671 406.744 660.671 L 406.744 660.671 L 406.744 660.671 Z  M 422.872 658.559 L 422.872 658.559 Q 423.992 658.655 423.992 659.583 L 423.992 659.583 L 423.992 659.583 Q 423.992 660.127 423.592 660.399 L 423.592 660.399 L 423.592 660.399 Q 423.192 660.671 422.392 660.607 L 422.392 660.607 L 421.528 660.543 L 421.528 660.543 Q 418.968 660.351 417.752 659.007 L 417.752 659.007 L 417.752 659.007 Q 416.536 657.663 416.536 654.943 L 416.536 654.943 L 416.536 646.911 L 414.392 646.911 L 414.392 646.911 Q 413.848 646.911 413.544 646.639 L 413.544 646.639 L 413.544 646.639 Q 413.24 646.367 413.24 645.919 L 413.24 645.919 L 413.24 645.919 Q 413.24 645.439 413.544 645.151 L 413.544 645.151 L 413.544 645.151 Q 413.848 644.863 414.392 644.863 L 414.392 644.863 L 416.536 644.863 L 416.536 641.247 L 416.536 641.247 Q 416.536 640.639 416.888 640.303 L 416.888 640.303 L 416.888 640.303 Q 417.24 639.967 417.848 639.967 L 417.848 639.967 L 417.848 639.967 Q 418.424 639.967 418.776 640.303 L 418.776 640.303 L 418.776 640.303 Q 419.128 640.639 419.128 641.247 L 419.128 641.247 L 419.128 644.863 L 422.68 644.863 L 422.68 644.863 Q 423.192 644.863 423.496 645.151 L 423.496 645.151 L 423.496 645.151 Q 423.8 645.439 423.8 645.919 L 423.8 645.919 L 423.8 645.919 Q 423.8 646.367 423.496 646.639 L 423.496 646.639 L 423.496 646.639 Q 423.192 646.911 422.68 646.911 L 422.68 646.911 L 419.128 646.911 L 419.128 655.071 L 419.128 655.071 Q 419.128 656.831 419.848 657.615 L 419.848 657.615 L 419.848 657.615 Q 420.568 658.399 422.008 658.495 L 422.008 658.495 L 422.872 658.559 L 422.872 658.559 Z " fill="rgb(35,157,240)"/></svg>